<svg width="120" height="120" viewBox="0 0 120 120" fill="none" xmlns="http://www.w3.org/2000/svg">
  <g stroke="#8A3C00" stroke-width="4" stroke-linecap="round" stroke-linejoin="round">
    <circle cx="76" cy="34" r="16" fill="#FFE7C2"/>
    <path d="M76 50c6 14 18 24 32 30"/>
    <path d="M76 50c-5 12-14 22-24 30"/>
    <path d="M100 110c-4-22-12-40-24-50"/>
    <path d="M52 110c3-20 9-38 24-50"/>
    <path d="M88 74l18-10"/>
    <path d="M64 74l-18-10"/>
    <path d="M69 40c2 2 4 3 7 3s5-1 7-3"/>
  </g>
  <g fill="#FFCA7A">
    <circle cx="69" cy="30" r="2"/>
    <circle cx="83" cy="30" r="2"/>
  </g>
</svg>
