<svg xmlns="http://www.w3.org/2000/svg" aria-hidden="true" focusable="false">
  <symbol id="zoom-in" viewBox="0 0 24 24">
    <circle cx="11" cy="11" r="7" fill="none" stroke="currentColor" stroke-width="2" />
    <line x1="11" y1="8" x2="11" y2="14" stroke="currentColor" stroke-width="2" stroke-linecap="round" />
    <line x1="8" y1="11" x2="14" y2="11" stroke="currentColor" stroke-width="2" stroke-linecap="round" />
    <line x1="15.5" y1="15.5" x2="21" y2="21" stroke="currentColor" stroke-width="2" stroke-linecap="round" />
  </symbol>
  <symbol id="zoom-out" viewBox="0 0 24 24">
    <circle cx="11" cy="11" r="7" fill="none" stroke="currentColor" stroke-width="2" />
    <line x1="8" y1="11" x2="14" y2="11" stroke="currentColor" stroke-width="2" stroke-linecap="round" />
    <line x1="15.5" y1="15.5" x2="21" y2="21" stroke="currentColor" stroke-width="2" stroke-linecap="round" />
  </symbol>
  <symbol id="speed" viewBox="0 0 24 24">
    <path d="M4 17a8 8 0 0 1 16 0" fill="none" stroke="currentColor" stroke-width="2" stroke-linecap="round" />
    <path d="M12 13l3.6-3.6" fill="none" stroke="currentColor" stroke-width="2" stroke-linecap="round" stroke-linejoin="round" />
    <circle cx="12" cy="17" r="1.2" fill="currentColor" />
    <line x1="6" y1="17" x2="8.4" y2="17" stroke="currentColor" stroke-width="1.8" stroke-linecap="round" />
    <line x1="15.6" y1="17" x2="18" y2="17" stroke="currentColor" stroke-width="1.8" stroke-linecap="round" />
    <line x1="8" y1="13.2" x2="9.2" y2="11.4" stroke="currentColor" stroke-width="1.4" stroke-linecap="round" />
    <line x1="12" y1="11.2" x2="12" y2="9.2" stroke="currentColor" stroke-width="1.4" stroke-linecap="round" />
    <line x1="16" y1="13.2" x2="14.8" y2="11.4" stroke="currentColor" stroke-width="1.4" stroke-linecap="round" />
  </symbol>
  <symbol id="turtle" viewBox="0 0 24 24">
    <path
      d="M4 13c0-3.3 3.1-6 8-6s8 2.7 8 6v2c0 1.1-.9 2-2 2H6c-1.1 0-2-.9-2-2z"
      fill="none"
      stroke="currentColor"
      stroke-width="2"
      stroke-linejoin="round"
    />
    <path d="M7 17l-1 3" stroke="currentColor" stroke-width="2" stroke-linecap="round" />
    <path d="M17 17l1 3" stroke="currentColor" stroke-width="2" stroke-linecap="round" />
    <path d="M12 7V5" stroke="currentColor" stroke-width="2" stroke-linecap="round" />
    <path d="M4 13l-1.5-1" stroke="currentColor" stroke-width="2" stroke-linecap="round" />
    <circle cx="20.5" cy="12" r="1.2" fill="currentColor" />
  </symbol>
  <symbol id="play" viewBox="0 0 24 24">
    <path d="M8 5v14l11-7z" fill="currentColor" />
  </symbol>
  <symbol id="pause" viewBox="0 0 24 24">
    <rect x="7" y="5" width="4" height="14" rx="1" fill="currentColor" />
    <rect x="13" y="5" width="4" height="14" rx="1" fill="currentColor" />
  </symbol>
  <symbol id="undo" viewBox="0 0 24 24">
    <path d="M7 7V3L2 8l5 5v-4a7 7 0 0 1 7 7c0 1.2-.27 2.33-.76 3.33" fill="none" stroke="currentColor" stroke-width="2" stroke-linecap="round" stroke-linejoin="round" />
  </symbol>
  <symbol id="redo" viewBox="0 0 24 24">
    <path d="M17 7V3l5 5-5 5v-4a7 7 0 0 0-7 7c0 1.2.27 2.33.76 3.33" fill="none" stroke="currentColor" stroke-width="2" stroke-linecap="round" stroke-linejoin="round" />
  </symbol>
  <symbol id="reset" viewBox="0 0 24 24">
    <path d="M6 7h12" stroke="currentColor" stroke-width="2" stroke-linecap="round" />
    <path d="M9 7V5.5A1.5 1.5 0 0 1 10.5 4h3A1.5 1.5 0 0 1 15 5.5V7" fill="none" stroke="currentColor" stroke-width="2" />
    <path d="M8 7l.7 11a1.5 1.5 0 0 0 1.5 1.4h3.6a1.5 1.5 0 0 0 1.5-1.4L16 7" fill="none" stroke="currentColor" stroke-width="2" stroke-linejoin="round" />
  </symbol>
  <symbol id="page-blank" viewBox="0 0 24 24">
    <path d="M6 3h9l5 5v13H6a3 3 0 0 1-3-3V6a3 3 0 0 1 3-3z" fill="none" stroke="currentColor" stroke-width="2" stroke-linejoin="round" />
    <polyline points="15 3 15 9 21 9" fill="none" stroke="currentColor" stroke-width="2" stroke-linejoin="round" />
  </symbol>
  <symbol id="page-lines" viewBox="0 0 24 24">
    <rect x="4" y="5" width="16" height="14" rx="2" ry="2" fill="none" stroke="currentColor" stroke-width="2" />
    <line x1="7" y1="9" x2="17" y2="9" stroke="currentColor" stroke-width="1.6" stroke-linecap="round" />
    <line x1="7" y1="12" x2="17" y2="12" stroke="currentColor" stroke-width="1.6" stroke-linecap="round" stroke-dasharray="2 2" />
    <line x1="7" y1="15" x2="17" y2="15" stroke="currentColor" stroke-width="1.6" stroke-linecap="round" />
  </symbol>
  <symbol id="pen" viewBox="0 0 24 24">
    <path d="M4 20l3-1 10.5-10.5a2 2 0 0 0 0-2.8l-1.2-1.2a2 2 0 0 0-2.8 0L3 15z" fill="none" stroke="currentColor" stroke-width="2" stroke-linejoin="round" />
    <path d="M14 6l4 4" fill="none" stroke="currentColor" stroke-width="2" stroke-linejoin="round" />
  </symbol>
  <symbol id="palette" viewBox="0 0 24 24">
    <path d="M12 3a9 9 0 1 0 8.4 12.1 1.9 1.9 0 0 0-1.9-2.6h-2.7a2 2 0 0 1-2-2 1.9 1.9 0 0 1 1.5-1.9A9 9 0 0 0 12 3z" fill="none" stroke="currentColor" stroke-width="2" stroke-linejoin="round" />
    <circle cx="8" cy="10" r="1" fill="currentColor" />
    <circle cx="10.5" cy="7.5" r="1" fill="currentColor" />
    <circle cx="14.5" cy="7.8" r="1" fill="currentColor" />
    <circle cx="16" cy="11" r="1" fill="currentColor" />
  </symbol>
  <symbol id="upload" viewBox="0 0 24 24">
    <path d="M12 15V5" stroke="currentColor" stroke-width="2" stroke-linecap="round" />
    <path d="M8 9l4-4 4 4" fill="none" stroke="currentColor" stroke-width="2" stroke-linecap="round" stroke-linejoin="round" />
    <path d="M5 19h14" stroke="currentColor" stroke-width="2" stroke-linecap="round" />
  </symbol>
  <symbol id="close" viewBox="0 0 24 24">
    <line x1="7" y1="7" x2="17" y2="17" stroke="currentColor" stroke-width="2" stroke-linecap="round" />
    <line x1="17" y1="7" x2="7" y2="17" stroke="currentColor" stroke-width="2" stroke-linecap="round" />
  </symbol>
  <symbol id="timer" viewBox="0 0 24 24">
    <circle cx="12" cy="13" r="7" fill="none" stroke="currentColor" stroke-width="2" />
    <line x1="12" y1="13" x2="12" y2="9" stroke="currentColor" stroke-width="2" stroke-linecap="round" />
    <line x1="12" y1="1.5" x2="12" y2="4" stroke="currentColor" stroke-width="2" stroke-linecap="round" />
    <line x1="9" y1="3" x2="15" y2="3" stroke="currentColor" stroke-width="2" stroke-linecap="round" />
  </symbol>
  <symbol id="fullscreen" viewBox="0 0 24 24">
    <polyline points="9 3 3 3 3 9" fill="none" stroke="currentColor" stroke-width="2" stroke-linecap="round" stroke-linejoin="round" />
    <polyline points="15 3 21 3 21 9" fill="none" stroke="currentColor" stroke-width="2" stroke-linecap="round" stroke-linejoin="round" />
    <polyline points="21 15 21 21 15 21" fill="none" stroke="currentColor" stroke-width="2" stroke-linecap="round" stroke-linejoin="round" />
    <polyline points="9 21 3 21 3 15" fill="none" stroke="currentColor" stroke-width="2" stroke-linecap="round" stroke-linejoin="round" />
  </symbol>
</svg>
