<?xml version="1.0" encoding="UTF-8" standalone="no"?>
<!-- Created with Inkscape (http://www.inkscape.org/) -->

<svg
   width="51.666943mm"
   height="58.94252mm"
   viewBox="0 0 51.666943 58.942522"
   version="1.1"
   id="svg1"
   sodipodi:docname="bluePageColourIcon.svg"
   inkscape:version="1.4 (86a8ad7, 2024-10-11)"
   xmlns:inkscape="http://www.inkscape.org/namespaces/inkscape"
   xmlns:sodipodi="http://sodipodi.sourceforge.net/DTD/sodipodi-0.dtd"
   xmlns="http://www.w3.org/2000/svg"
   xmlns:svg="http://www.w3.org/2000/svg">
  <sodipodi:namedview
     id="namedview1"
     pagecolor="#ffffff"
     bordercolor="#000000"
     borderopacity="0.25"
     inkscape:showpageshadow="2"
     inkscape:pageopacity="0.0"
     inkscape:pagecheckerboard="true"
     inkscape:deskcolor="#d1d1d1"
     inkscape:document-units="mm"
     inkscape:zoom="2"
     inkscape:cx="-19.75"
     inkscape:cy="72.75"
     inkscape:window-width="1147"
     inkscape:window-height="1017"
     inkscape:window-x="0"
     inkscape:window-y="0"
     inkscape:window-maximized="0"
     inkscape:current-layer="svg1" />
  <defs
     id="defs1">
    <inkscape:path-effect
       effect="fillet_chamfer"
       id="path-effect9"
       is_visible="true"
       lpeversion="1"
       nodesatellites_param="F,0,0,1,0,0,0,1 @ F,0,0,1,0,0,0,1 @ F,0,0,1,0,0,0,1 @ F,0,0,1,0,0,0,1 @ F,0,0,1,0,0,0,1 @ F,0,0,1,0,0,0,1 @ F,0,0,1,0,0,0,1 @ F,0,0,1,0,0,0,1"
       radius="0"
       unit="px"
       method="auto"
       mode="F"
       chamfer_steps="1"
       flexible="false"
       use_knot_distance="true"
       apply_no_radius="true"
       apply_with_radius="true"
       only_selected="false"
       hide_knots="false" />
    <inkscape:path-effect
       effect="fillet_chamfer"
       id="path-effect8"
       is_visible="true"
       lpeversion="1"
       nodesatellites_param="F,0,0,1,0,0,0,1 @ F,0,0,1,0,0,0,1 @ F,0,0,1,0,0,0,1 @ F,0,0,1,0,0,0,1"
       radius="0"
       unit="px"
       method="auto"
       mode="F"
       chamfer_steps="1"
       flexible="false"
       use_knot_distance="true"
       apply_no_radius="true"
       apply_with_radius="true"
       only_selected="false"
       hide_knots="false" />
    <inkscape:path-effect
       effect="fillet_chamfer"
       id="path-effect7"
       is_visible="true"
       lpeversion="1"
       nodesatellites_param="F,0,0,1,0,0,0,1 @ F,0,0,1,0,0,0,1 @ F,0,0,1,0,0,0,1 @ F,0,0,1,0,0,0,1"
       radius="0"
       unit="px"
       method="auto"
       mode="F"
       chamfer_steps="1"
       flexible="false"
       use_knot_distance="true"
       apply_no_radius="true"
       apply_with_radius="true"
       only_selected="false"
       hide_knots="false" />
    <inkscape:path-effect
       effect="fillet_chamfer"
       id="path-effect6"
       is_visible="true"
       lpeversion="1"
       nodesatellites_param="F,0,0,1,0,0,0,1 @ F,0,0,1,0,0,0,1 @ F,0,0,1,0,0,0,1 @ F,0,0,1,0,0,0,1"
       radius="0"
       unit="px"
       method="auto"
       mode="F"
       chamfer_steps="1"
       flexible="false"
       use_knot_distance="true"
       apply_no_radius="true"
       apply_with_radius="true"
       only_selected="false"
       hide_knots="false" />
  </defs>
  <path
     style="fill:#b8ccfc;fill-opacity:1;stroke:#232323;stroke-width:2.73177;stroke-linejoin:round;stroke-dasharray:none;stroke-opacity:1"
     id="rect5"
     width="34.64727"
     height="42.320187"
     x="9.0002747"
     y="5.1638165"
     sodipodi:type="rect"
     inkscape:path-effect="#path-effect9"
     d="m 13.490403,5.1638165 h 25.667014 c 2.487531,0 4.490128,2.0025971 4.490128,4.490128 V 42.993875 c 0,2.487531 -2.002597,4.490128 -4.490128,4.490128 H 13.490403 c -2.487531,0 -4.4901283,-2.002597 -4.4901283,-4.490128 V 9.6539445 c 0,-2.4875309 2.0025973,-4.490128 4.4901283,-4.490128 z"
     ry="4.490128"
     transform="translate(6.6535111,-3.7979314)" />
  <path
     style="fill:#ffffff;stroke:#242424;stroke-width:2.52556;stroke-linecap:round;stroke-linejoin:round;stroke-dasharray:none;stroke-opacity:1"
     d="m 20.588536,9.3184676 c 24.777769,0 24.777769,0 24.777769,0"
     id="path1" />
  <path
     style="fill:#ffffff;stroke:#242424;stroke-width:2.52556;stroke-linecap:round;stroke-linejoin:round;stroke-dasharray:none;stroke-opacity:1"
     d="m 20.588536,14.930665 c 24.777769,0 24.777769,0 24.777769,0"
     id="path2" />
  <path
     style="fill:#ffffff;stroke:#242424;stroke-width:2.52556;stroke-linecap:round;stroke-linejoin:round;stroke-dasharray:none;stroke-opacity:1"
     d="m 20.588536,20.542862 c 24.777769,0 24.777769,0 24.777769,0"
     id="path3" />
  <path
     style="fill:#ffffff;stroke:#242424;stroke-width:2.52556;stroke-linecap:round;stroke-linejoin:round;stroke-dasharray:none;stroke-opacity:1"
     d="m 20.588536,26.155058 c 24.777769,0 24.777769,0 24.777769,0"
     id="path4" />
  <path
     style="fill:#ffffff;stroke:#242424;stroke-width:2.52556;stroke-linecap:round;stroke-linejoin:round;stroke-dasharray:none;stroke-opacity:1"
     d="m 20.588536,31.767255 c 24.777769,0 24.777769,0 24.777769,0"
     id="path5" />
  <path
     style="fill:#ffffff;stroke:#242424;stroke-width:2.52556;stroke-linecap:round;stroke-linejoin:round;stroke-dasharray:none;stroke-opacity:1"
     d="m 20.588536,37.379452 c 24.777769,0 24.777769,0 24.777769,0"
     id="path6" />
  <g
     id="g2"
     transform="matrix(0.64907732,0,0,0.64907732,-46.174129,-5.7909809)">
    <path
       id="path3-7"
       style="fill:#ff0000;stroke:#ffffff;stroke-width:1.265;stroke-dasharray:none;stroke-opacity:1"
       d="m 69.574218,27.824737 a 25,25 0 0 0 -17.633032,7.367509 l 10.606588,10.606071 a 10,10 0 0 1 7.026444,-2.973462 z"
       transform="translate(27.198686,21.272008)" />
    <path
       id="path7"
       style="display:inline;fill:#ffd5d5;stroke:#ffffff;stroke-width:1.265;stroke-dasharray:none;stroke-opacity:1"
       d="m 76.600663,59.851206 a 10,10 0 0 1 -7.026445,2.973462 v 15.000118 a 25,25 0 0 0 17.677474,-7.322551 z"
       transform="translate(27.198686,21.272008)" />
    <path
       id="path8"
       style="display:inline;fill:#00c900;stroke:#ffffff;stroke-width:1.265;stroke-dasharray:none;stroke-opacity:1"
       d="M 62.547774,59.851206 51.941186,70.457277 a 25,25 0 0 0 17.633032,7.367509 V 62.824668 a 10,10 0 0 1 -7.026444,-2.973462 z"
       transform="translate(27.198686,21.272008)" />
    <path
       id="path9"
       style="display:inline;fill:#00ff00;stroke:#ffffff;stroke-width:1.265;stroke-dasharray:none;stroke-opacity:1"
       d="m 44.574194,52.824761 a 25,25 0 0 0 7.366992,17.632516 L 62.547774,59.851206 a 10,10 0 0 1 -2.973462,-7.026445 z"
       transform="translate(27.198686,21.272008)" />
    <path
       id="path10"
       style="display:inline;fill:#ffff00;stroke:#ffffff;stroke-width:1.265;stroke-dasharray:none;stroke-opacity:1"
       d="m 51.941186,35.192246 a 25,25 0 0 0 -7.366992,17.632515 h 15.000118 a 10,10 0 0 1 2.973462,-7.026444 z"
       transform="translate(27.198686,21.272008)" />
    <path
       id="path5-6"
       style="display:inline;fill:#00ffff;stroke:#ffffff;stroke-width:1.265;stroke-dasharray:none;stroke-opacity:1"
       d="m 87.251692,35.147287 -10.651029,10.65103 a 10,10 0 0 1 2.973462,7.026444 H 94.574243 A 25,25 0 0 0 87.251692,35.147287 Z"
       transform="translate(27.198685,21.272008)" />
    <path
       id="path6-1"
       style="display:inline;fill:#800080;stroke:#ffffff;stroke-width:1.265;stroke-dasharray:none;stroke-opacity:1"
       d="m 79.574125,52.824761 a 10,10 0 0 1 -2.973462,7.026445 l 10.651029,10.651029 a 25,25 0 0 0 7.322551,-17.677474 z"
       transform="translate(27.198685,21.272008)" />
    <path
       id="path4-4"
       style="display:inline;fill:#0000ff;stroke:#ffffff;stroke-width:1.265;stroke-dasharray:none;stroke-opacity:1"
       d="m 69.574218,27.824737 v 15.000118 a 10,10 0 0 1 7.026445,2.973462 l 10.651029,-10.65103 a 25,25 0 0 0 -17.677474,-7.32255 z"
       transform="translate(27.198685,21.272008)" />
  </g>
</svg>
