<?xml version="1.0" encoding="UTF-8" standalone="no"?>
<!-- Created with Inkscape (http://www.inkscape.org/) -->

<svg
   width="130.98651mm"
   height="130.98651mm"
   viewBox="0 0 130.98651 130.98651"
   version="1.1"
   id="svg1"
   inkscape:version="1.4 (86a8ad7, 2024-10-11)"
   sodipodi:docname="helpIcon.svg"
   xmlns:inkscape="http://www.inkscape.org/namespaces/inkscape"
   xmlns:sodipodi="http://sodipodi.sourceforge.net/DTD/sodipodi-0.dtd"
   xmlns="http://www.w3.org/2000/svg"
   xmlns:svg="http://www.w3.org/2000/svg">
  <sodipodi:namedview
     id="namedview1"
     pagecolor="#ffffff"
     bordercolor="#000000"
     borderopacity="0.25"
     inkscape:showpageshadow="2"
     inkscape:pageopacity="0.0"
     inkscape:pagecheckerboard="0"
     inkscape:deskcolor="#d1d1d1"
     inkscape:document-units="mm"
     inkscape:zoom="0.70710678"
     inkscape:cx="103.9447"
     inkscape:cy="205.76807"
     inkscape:window-width="1920"
     inkscape:window-height="1017"
     inkscape:window-x="-8"
     inkscape:window-y="-8"
     inkscape:window-maximized="1"
     inkscape:current-layer="layer1" />
  <defs
     id="defs1" />
  <g
     inkscape:label="Layer 1"
     inkscape:groupmode="layer"
     id="layer1"
     transform="translate(-39.506748,-83.553379)">
    <circle
       style="fill:none;stroke:#e8e8e8;stroke-width:10;stroke-linecap:round;stroke-linejoin:round;stroke-opacity:1"
       id="path1"
       cx="105"
       cy="149.04663"
       r="60.493252" />
    <circle
       style="fill:#e8e8e8;fill-opacity:1;stroke:none;stroke-width:7.73111;stroke-linecap:round;stroke-linejoin:round"
       id="path2"
       cx="105"
       cy="183.00717"
       r="9.0155172" />
    <path
       style="fill:#e8e8e8;stroke-width:1.24802;stroke-linecap:round;stroke-linejoin:round;fill-opacity:1"
       d="m 105,110.08908 c -21.524468,0 -39.173307,11.33107 -39.173307,25.15039 a 9.3117323,5.9784002 0 0 0 9.311913,5.97852 9.3117323,5.9784002 0 0 0 9.311912,-5.97852 c 0,-7.35739 9.089893,-13.19336 20.549482,-13.19336 11.4596,0 20.54948,5.83597 20.54948,13.19336 0,7.3574 -9.08987,13.19336 -20.54948,13.19336 a 9.3126641,5.9789981 0 0 0 -9.311913,5.97852 v 10.39648 A 9.3117323,5.9784002 0 0 0 105,170.78635 a 9.3117323,5.9784002 0 0 0 9.31192,-5.97852 v -5.22265 c 17.05397,-2.71575 29.86138,-12.59474 29.86138,-24.34571 0,-13.81932 -17.64883,-25.15039 -39.1733,-25.15039 z"
       id="path4" />
  </g>
</svg>
