<svg height="512" viewBox="0 0 512 512" width="512" xmlns="http://www.w3.org/2000/svg"><g id="Layer_2" data-name="Layer 2"><g id="_02.weightlifting_" data-name="02.weightlifting_"><path d="m189.44 234.12h32a6.92 6.92 0 0 1 6.83-5.82h55a6.92 6.92 0 0 1 6.83 5.82h32.5v-72h-133.16zm66.31-66.46a26.44 26.44 0 1 1 -26.44 26.44 26.43 26.43 0 0 1 26.44-26.44z"/><path d="m256 0c-141.38 0-256 114.62-256 256s114.62 256 256 256 256-114.62 256-256-114.62-256-256-256zm136 178.38a12.29 12.29 0 0 1 -12.29 12.29 12.29 12.29 0 0 1 -12.29-12.29v-16.26h-22.14v88.82a11.37 11.37 0 0 1 -11.36 11.36h-43.76v48.95h23.84c.51 0 1 0 1.52.07a15 15 0 0 1 14.34 7.41l29.34 50.82a15 15 0 1 1 -25.92 15l-19.69-34.1h-117.91l-19.68 34.06a15 15 0 0 1 -20.45 5.49 15 15 0 0 1 -5.48-20.44l29.34-50.82a15 15 0 0 1 13.72-7.46h.86 27.34v-48.98h-43.25a11.37 11.37 0 0 1 -11.36-11.36v-88.82h-22.14v16.26a12.29 12.29 0 0 1 -12.29 12.29 12.29 12.29 0 0 1 -12.29-12.29v-46.09a12.29 12.29 0 0 1 12.29-12.29 12.29 12.29 0 0 1 12.29 12.29v16.26h22.14a11.36 11.36 0 1 1 22.72 0h133.12a11.36 11.36 0 1 1 22.72 0h22.14v-16.26a12.29 12.29 0 0 1 12.29-12.29 12.29 12.29 0 0 1 12.29 12.29z"/></g></g></svg>